<svg width="30" height="30" viewBox="0 0 30 30" xmlns="http://www.w3.org/2000/svg">
<path fill-rule="evenodd" clip-rule="evenodd" d="M24.8437 27H5.15717C4.09758 27 3.31514 25.9545 3.71478 24.993C5.56906 20.547 9.9253 18 14.9997 18C20.0756 18 24.4318 20.547 26.2861 24.993C26.6858 25.9545 25.9033 27 24.8437 27ZM8.87498 8.99995C8.87498 5.69094 11.6235 2.99994 14.9998 2.99994C18.3776 2.99994 21.1245 5.69094 21.1245 8.99995C21.1245 12.3089 18.3776 15 14.9998 15C11.6235 15 8.87498 12.3089 8.87498 8.99995ZM29.9335 26.454C28.8203 21.4155 25.3384 17.697 20.7555 16.0095C23.184 14.094 24.6004 10.9965 24.0798 7.60497C23.4765 3.67047 20.1354 0.521966 16.1022 0.0629655C10.5348 -0.571535 5.81261 3.67347 5.81261 8.99998C5.81261 11.835 7.15393 14.361 9.24555 16.0095C4.66115 17.697 1.18075 21.4155 0.066036 26.454C-0.338199 28.2855 1.1685 30 3.08096 30H26.9186C28.8326 30 30.3393 28.2855 29.9335 26.454Z"/>
</svg>
