<svg width="16" height="26" viewBox="0 0 16 26" fill="none" xmlns="http://www.w3.org/2000/svg">
<path fill-rule="evenodd" clip-rule="evenodd" d="M6.75 20.5H9.25V21.75C9.25 22.44 8.69 23 8 23C7.31 23 6.75 22.44 6.75 21.75V20.5ZM6.75 25.5H9.25C10.6313 25.5 11.75 24.3813 11.75 23V19.25C11.75 18.56 11.19 18 10.5 18H5.5C4.81 18 4.25 18.56 4.25 19.25V23C4.25 24.3813 5.36875 25.5 6.75 25.5ZM10.7025 13.0262C7.3525 12.9913 8.585 12.9913 5.29625 13.0262C4.22625 11.6637 3 8.9875 3 7.81375C3 5.16 5.2425 3 8 3C10.7575 3 13 5.16 13 7.81375C13 8.9875 11.7738 11.6637 10.7025 13.0262ZM8 0.5C3.8575 0.5 0.5 3.775 0.5 7.81375C0.5 9.85125 2.275 13.485 3.815 15.1238C4.06125 15.385 4.39875 15.535 4.7575 15.5312C9.39 15.4837 11.2513 15.5325 11.2425 15.5312C11.6012 15.535 11.9387 15.385 12.185 15.1238C13.725 13.485 15.5 9.85125 15.5 7.81375C15.5 3.775 12.1425 0.5 8 0.5Z" fill="white"/>
</svg>
