<svg width="26" height="26" viewBox="0 0 26 26" fill="none" xmlns="http://www.w3.org/2000/svg">
<path fill-rule="evenodd" clip-rule="evenodd" d="M21.0096 15.2202C19.2307 17.5014 17.3706 19.3273 15.2174 21.0047C17.0014 22.0349 21.1868 23.902 22.5428 22.5463C23.4685 21.6209 23.0431 18.7261 21.0096 15.2202M13.0019 19.5642C15.4794 17.752 17.7474 15.4846 19.5588 13.0077C17.7549 10.5395 15.4882 8.26962 13.0019 6.45121C10.5069 8.27461 8.24389 10.547 6.44373 13.0077C8.25511 15.4859 10.5243 17.752 13.0019 19.5642M10.7851 21.0047C8.62687 19.3223 6.76683 17.4964 4.99288 15.2202C2.95944 18.7261 2.53404 21.6209 3.45969 22.5463C4.80325 23.8883 8.95247 22.0649 10.7851 21.0047M4.99288 10.7952C6.77057 8.51406 8.63061 6.68941 10.7851 5.01069C9.00361 3.98051 4.81698 2.11221 3.45969 3.46916C2.53404 4.39458 2.95944 7.28932 4.99288 10.7952M15.2174 5.01068C17.3756 6.6919 19.2344 8.5178 21.0096 10.7952C25.5231 3.01143 22.1099 1.02714 15.2174 5.01068M22.5802 13.0077C29.3729 23.6213 23.5346 29.331 13.0019 22.5924C2.49412 29.3148 -3.39287 23.6563 3.42351 13.0077C-3.32301 2.46766 2.36562 -3.38168 13.0019 3.42301C23.5308 -3.31309 29.3792 2.38535 22.5802 13.0077M14.3317 11.682C15.0615 12.4128 15.0615 13.5976 14.3317 14.3273C13.6007 15.0581 12.4156 15.0581 11.6845 14.3273C10.9535 13.5976 10.9535 12.4128 11.6845 11.682C12.4156 10.9511 13.6007 10.9511 14.3317 11.682" fill="white"/>
</svg>
