<svg width="26" height="26" viewBox="0 0 26 26" fill="none" xmlns="http://www.w3.org/2000/svg">
<path fill-rule="evenodd" clip-rule="evenodd" d="M12.9472 0.5C5.49966 0.5 -0.41909 6.90875 0.61841 14.4062C1.27966 19.1837 4.90341 23.195 9.64966 24.46C11.4172 24.9312 13.2422 25.0312 15.0747 24.715C16.6047 24.45 18.1747 24.5687 19.6734 24.9437L21.4947 25.3987V25.3987C23.8559 25.99 26.0009 23.8887 25.3972 21.5737C25.3972 21.5737 25.0597 20.2787 25.0497 20.2375C24.6722 18.7875 24.5909 17.2562 24.9809 15.81C25.4634 14.0275 25.5447 12.0862 25.1109 10.075C23.9634 4.76875 19.0909 0.5 12.9472 0.5M12.9471 3C17.8871 3 21.7559 6.3875 22.6671 10.6038C23.0009 12.1488 22.9671 13.68 22.5684 15.1575C20.8809 21.3975 25.8146 23.9025 20.2796 22.5175C18.4384 22.0575 16.5196 21.9275 14.6484 22.2513C13.2046 22.5013 11.7421 22.43 10.2934 22.045C6.50965 21.0363 3.6159 17.8287 3.09465 14.0637C2.2559 7.99625 7.0859 3 12.9471 3V3" fill="white"/>
</svg>
