<svg width="26" height="26" viewBox="0 0 26 26" fill="none" xmlns="http://www.w3.org/2000/svg">
<path fill-rule="evenodd" clip-rule="evenodd" d="M23.4002 11.6994H18.5746C18.4017 11.6994 18.2366 11.7683 18.1144 11.8892L16.2931 13.7118C15.9928 14.0121 15.4884 13.9471 15.2726 13.5805C12.3853 8.65086 12.8013 9.36197 12.2371 8.39736C11.8068 7.66287 10.798 7.53416 10.1961 8.13606L9.54736 8.78347L9.55776 8.80167L6.84986 11.5096C6.72766 11.6305 6.56256 11.6994 6.38966 11.6994H2.60016V3.89937C2.60016 3.18177 3.18256 2.59937 3.90016 2.59937H22.1002C22.8178 2.59937 23.4002 3.18177 23.4002 3.89937V11.6994ZM23.4002 22.0996C23.4002 22.8172 22.8178 23.3996 22.1002 23.3996H3.90016C3.18256 23.3996 2.60016 22.8172 2.60016 22.0996V14.2996H7.46866C7.64156 14.2996 7.80666 14.2307 7.92886 14.1098L10.3209 11.7165C10.6212 11.4149 11.1256 11.4799 11.3414 11.8478C14.1988 16.7254 13.6294 15.7491 14.3561 17.001C14.7838 17.7381 15.7939 17.8707 16.3971 17.2688L19.1895 14.4894C19.3104 14.3672 19.4755 14.2996 19.6471 14.2996H23.4002V22.0996ZM23.4 0H2.6C1.1635 0 0 1.1635 0 2.6V23.4C0 24.8352 1.1635 26 2.6 26H23.4C24.8365 26 26 24.8352 26 23.4V2.6C26 1.1635 24.8365 0 23.4 0Z" fill="#BDBDBD"/>
</svg>
